<svg xmlns="http://www.w3.org/2000/svg" version="1.1" xmlns:xlink="http://www.w3.org/1999/xlink" xmlns:svgjs="http://svgjs.dev/svgjs" width="1920" height="1080" preserveAspectRatio="none" viewBox="0 0 1920 1080">
    <g mask="url(&quot;#SvgjsMask1124&quot;)" fill="none">
        <rect width="1920" height="1080" x="0" y="0" fill="rgba(31, 31, 31, 1)"></rect>
        <path d="M0,794.315C148.438,798.455,295.929,730.195,403.434,627.756C502.824,533.05,499.027,378.546,563.521,257.351C633.877,125.14,808.963,34.585,798.596,-114.821C788.323,-262.871,611.282,-333.312,514.716,-446.004C417.464,-559.497,368.567,-726.362,228.92,-779.629C87.497,-833.574,-64.633,-756.166,-212.396,-723.355C-371.497,-688.027,-578.772,-715.514,-669.509,-580.133C-762.297,-441.692,-616.615,-256.97,-635.93,-91.433C-654.434,67.155,-831.959,205.1,-778.69,355.616C-726.156,504.055,-526.414,528.359,-389.226,605.648C-261.012,677.881,-147.104,790.212,0,794.315" fill="#1a1a1a"></path>
        <path d="M1920 1896.286C2072.294 1882.325 2120.652 1674.7530000000002 2245.085 1585.843 2360.379 1503.463 2550.477 1523.4279999999999 2616.96 1398.291 2683.0879999999997 1273.823 2598.193 1124.024 2562.942 987.559 2531.4120000000003 865.5 2501.571 742.779 2422.309 644.7470000000001 2341.303 544.558 2229.558 479.73699999999997 2111.199 428.836 1979.693 372.28099999999995 1842.818 314.18100000000004 1701.131 334.601 1549.426 356.46400000000006 1402.0700000000002 428.414 1302.946 545.319 1204.262 661.704 1158.1979999999999 818.4 1161.566 970.954 1164.679 1111.942 1250.137 1231.604 1320.7930000000001 1353.649 1384.987 1464.532 1459.243 1563.171 1554.213 1649.175 1665.535 1749.988 1770.441 1909.996 1920 1896.286" fill="#242424"></path>
    </g>
    <defs>
        <mask id="SvgjsMask1124">
            <rect width="1920" height="1080" fill="#ffffff"></rect>
        </mask>
    </defs>
</svg>